<?xml version="1.0" encoding="UTF-8"?>
<svg id="Layer_1" data-name="Layer 1" xmlns="http://www.w3.org/2000/svg" version="1.1" viewBox="0 0 18 17.9">
  <defs>
    <style>
      .cls-1 {
        fill: #000;
        stroke-width: 0px;
      }

      .cls-2 {
        fill: none;
        stroke: #fff;
        stroke-miterlimit: 10;
        stroke-width: 1.4px;
      }

      .cls-3 {
        display: none;
      }
    </style>
  </defs>
  <g class="cls-3">
    <path class="cls-1" d="M15.4,6.4v-3.7h-3.7l-2.6-2.6-2.6,2.6h-3.7v3.7l-2.6,2.6,2.6,2.6v3.7h3.7l2.6,2.6,2.6-2.6h3.7v-3.7l2.6-2.6s-2.6-2.6-2.6-2.6ZM12.6,3.6h1.7v3.6h-3.6v-1.1l2.2-2.2-.3-.3h0ZM10.8,9.7h-1.1v1l-.7-.7-.7.7v-1.1h-1l.7-.7-.7-.7h1.1v-1l.7.7.7-.7v1.1h1l-.7.7.7.7ZM9,1.4l2.6,2.6-2.6,2.6-.7-.7v-3.2h-.5l1.2-1.2h0ZM3.6,3.6h3.6v3.6h-1.1l-2.2-2.2-.3.3v-1.7h0ZM2.6,10.2l-1.2-1.2,2.6-2.6,2.6,2.6-.7.7h-3.2v.5h0ZM7.2,14.4h-3.6v-3.6h3.6v3.6ZM9,16.6l-1.2-1.2h.5v-3.2l.7-.7.7.7v3.2h.5l-1.2,1.2h0ZM14.4,14.4h-3.6v-3.6h1.1l2.2,2.2.3-.3v1.7h0ZM14,11.6l-2.6-2.6.7-.7h3.2v-.5l1.2,1.2-2.6,2.6h0Z"/>
  </g>
  <rect class="cls-2" x="1.3" y="8.6" width="6.3" height="7.7"/>
  <rect class="cls-2" x="4" y="1.2" width="9.9" height="11.1"/>
  <rect class="cls-2" x="10" y="3.3" width="6.8" height="6.4"/>
  <rect class="cls-2" x="10" y="13.9" width="6.8" height="2.5"/>
</svg>