<?xml version="1.0" encoding="UTF-8"?>
<svg id="Layer_1" data-name="Layer 1" xmlns="http://www.w3.org/2000/svg" version="1.1" viewBox="0 0 18 17.9">
  <defs>
    <style>
      .cls-1 {
        fill: #fff;
        stroke-width: 0px;
      }
    </style>
  </defs>
  <path class="cls-1" d="M15.2,6.4v-3.7h-3.7L9,.2h0s0,0,0,0h0s0,0,0,0l-2.5,2.5h-3.7v3.7L.2,9l2.6,2.6v3.7h3.7l2.5,2.5v-1.2s-1.2-1.2-1.2-1.2h.5v-3.2l.7-.7v-1.5l-.7.7v-1.1h-1l.7-.7-.7-.7h1.1v-1l.6.6h0s0,0,0,0h0s0,0,0,0l.6-.6v1h1.1l-.7.7.7.7h-1v1.1l-.7-.7v1.5l.7.7v3.2h.5l-1.2,1.2v1.2s2.5-2.5,2.5-2.5h3.7v-3.7l2.6-2.6-2.6-2.6ZM2.7,9.7v.5h-.1l-1.2-1.2,2.6-2.6,2.6,2.6-.7.7h-3.2ZM7.2,14.4h-3.6v-3.6h3.6v3.6ZM7.2,7.2h-1.1l-2.2-2.2-.3.3v-1.7h3.6v3.6ZM9.7,2.7v3.2l-.7.7v.5s0-.5,0-.5l-.7-.7v-3.2h-.5l1.2-1.2v-.2s0,.2,0,.2l1.2,1.2h-.5ZM10.8,3.6h3.6v1.7l-.3-.3-2.2,2.2h-1.1v-3.6ZM14.4,14.4h-3.6v-3.6h3.6v3.6ZM15.3,10.2v-.5h-3.2l-.7-.7,2.6-2.6,2.6,2.6-1.2,1.2h-.1Z"/>
</svg>